<svg xmlns="http://www.w3.org/2000/svg" width="177.553" height="81.342" viewBox="0 0 177.553 81.342"><g transform="translate(-3274.49 -5357.136)"><path d="M3274.86,5405.05a17.421,17.421,0,0,0,7.068,1.685c5.506,0,6.493-3.041,6.493-4.85,0-5.177-10.6-4.314-10.6-12.328,0-3.04,1.849-9.081,11.341-9.081a16.886,16.886,0,0,1,6.329,1.191c-.082.781-.124,4.028-.576,4.233a15.37,15.37,0,0,0-5.958-1.315c-4.315,0-6.164,1.808-6.164,4.274,0,5.013,10.684,3.9,10.684,12.205,0,4.561-3.205,9.862-11.506,9.862a16.759,16.759,0,0,1-7.479-1.521A35.136,35.136,0,0,1,3274.86,5405.05Z" fill="#fff"/><path d="M3303.307,5390.79l-3.863,19.684h-4.931l3.822-19.684Zm-.7-9.739c1.726,0,2.589.781,2.589,2.26,0,2.178-1.315,3.493-3.657,3.493-1.6,0-2.507-.781-2.507-2.219A3.354,3.354,0,0,1,3302.608,5381.051Z" fill="#fff"/><path d="M3335.114,5397.9l-2.465,12.575h-4.973l2.343-11.958c.575-2.877-.329-4.109-2.343-4.109a5.284,5.284,0,0,0-5.013,4.068l-2.342,12h-4.973l2.343-11.917c.534-2.836-.288-4.15-2.384-4.15-2.876,0-4.684,2.218-5.136,4.725l-2.22,11.342h-4.931l3.822-19.684h4.438l-.37,2.836h.124a7.238,7.238,0,0,1,6.369-3.288c2.918,0,4.644,1.233,5.26,3.411a8.468,8.468,0,0,1,6.986-3.411C3334.046,5390.338,3336.06,5392.927,3335.114,5397.9Z" fill="#fff"/><path d="M3344.49,5390.79l-.37,2.795h.082a7.831,7.831,0,0,1,6.329-3.247c3.863,0,6.9,2.178,6.9,7.356,0,7.808-4.273,13.232-10.6,13.232a9.749,9.749,0,0,1-5.424-1.6l-1.644,8.26h-4.931l5.219-26.793Zm7.643,7.808c0-3.082-1.6-4.274-3.78-4.274-2.466,0-4.438,1.932-5.014,4.89l-1.232,6.452a5.754,5.754,0,0,0,3.862,1.315C3350.654,5406.981,3352.133,5402.009,3352.133,5398.6Z" fill="#fff"/><path d="M3368.791,5380.928l-4.561,23.629c-.329,1.643,0,2.342,1.6,2.342a6.509,6.509,0,0,0,1.562-.164l-.945,3.657a11.724,11.724,0,0,1-3.37.493c-3.9,0-4.561-2.548-3.945-5.794l4.726-24.163Z" fill="#fff"/><path d="M3440.332,5380.928l-3.493,17.834.164-.041,8.137-8.054h6.9l-9.081,8.671,5.342,11.136h-6.7l-4.726-10.767-.164-.082-2.137,10.849h-6.123l5.753-29.546Z" fill="#fff"/><path d="M3427.615,5395.927c0-2.836-1.479-5.753-7.355-5.753a12.164,12.164,0,0,0-6.413,1.657,98.476,98.476,0,0,1-4.532,15.711c1.3,2.114,3.766,3.425,7.739,3.425a18.117,18.117,0,0,0,7.109-1.4l1.438-4.808h-.287a16.457,16.457,0,0,1-6.287,1.315c-3.329,0-4.644-.863-4.48-2.918C3422.479,5403.2,3427.615,5401.31,3427.615,5395.927Zm-12.574,3.082c.41-2.014,2.095-4.48,4.931-4.48,1.52,0,2.219.7,2.219,1.686C3422.191,5398.269,3419.931,5399.214,3415.041,5399.009Z" fill="#fff"/><path d="M3407.271,5358.48c-8.612-5.7-22.5,7.28-31.017,29-.341.869-.663,1.74-.977,2.609a12.455,12.455,0,0,1,1.818-.712c.136-.359.256-.719.4-1.077,3.882-9.9,9.017-18.153,14.457-23.239,4.825-4.511,9.379-5.915,12.5-3.852s4.917,7.678,4.943,15.4c.03,8.71-2.092,18.959-5.974,28.858s-9.017,18.153-14.458,23.239c-4.824,4.512-9.379,5.915-12.494,3.852s-4.917-7.677-4.944-15.4a60.3,60.3,0,0,1,.323-6.167,7.786,7.786,0,0,1-1.389-1.1c-1.595,12.923.4,23.547,5.972,27.24,8.612,5.7,22.5-7.279,31.017-29S3415.883,5364.184,3407.271,5358.48Z" fill="#fff"/><path d="M3374.727,5402.913c-.164,2.63,1.069,4.027,4.767,4.027a14.426,14.426,0,0,0,6.493-1.6h.288l-1.151,3.986a15.517,15.517,0,0,1-7.191,1.6c-5.877,0-8.383-3.123-8.383-7.849,0-6.205,3.575-12.739,11.793-12.739,5.384,0,6.945,2.671,6.945,5.425C3388.288,5401.475,3382.124,5403,3374.727,5402.913Zm.411-3.452c5.1.206,8.671-.658,8.671-3.452,0-1.027-.616-2.1-2.753-2.1C3378.261,5393.913,3375.755,5396.05,3375.138,5399.461Z" fill="#fff"/><path d="M3387.845,5386.064h8.507l-4.726,24.41h6.287l4.767-24.41h4.419q.393-2.622.572-5.137h-18.8Z" fill="#fff"/></g></svg>